{
  "accessors": [
    {
      "bufferView": 2,
      "componentType": 5126,
      "count": 10357,
      "max": [
        6.964561462402344,
        16.482397079467773,
        7.030625820159912
      ],
      "min": [
        -6.964552402496338,
        4.214880533481846e-08,
        -7.0306291580200195
      ],
      "type": "VEC3"
    },
    {
      "bufferView": 2,
      "byteOffset": 124284,
      "componentType": 5126,
      "count": 10357,
      "max": [
        0.9998932480812073,
        1.0,
        0.9998834133148193
      ],
      "min": [
        -0.9998958110809326,
        -1.0,
        -0.9999887943267822
      ],
      "type": "VEC3"
    },
    {
      "bufferView": 3,
      "componentType": 5126,
      "count": 10357,
      "max": [
        0.9999974370002747,
        1.0,
        0.9998108744621277,
        1.0
      ],
      "min": [
        -0.9998013377189636,
        -0.9982643127441406,
        -0.9998094439506531,
        1.0
      ],
      "type": "VEC4"
    },
    {
      "bufferView": 1,
      "componentType": 5126,
      "count": 10357,
      "max": [
        0.9998350143432617,
        0.9757410287857056
      ],
      "min": [
        0.0,
        0.0
      ],
      "type": "VEC2"
    },
    {
      "bufferView": 0,
      "componentType": 5125,
      "count": 41694,
      "type": "SCALAR"
    }
  ],
  "asset": {
    "extras": {
      "author": "Ramanan (https://sketchfab.com/Ramanan)",
      "license": "CC-BY-4.0 (http://creativecommons.org/licenses/by/4.0/)",
      "source": "https://sketchfab.com/3d-models/bot-red-7c49ddf6ccc7459f9a4dada0bf1705c3",
      "title": "Bot Red"
    },
    "generator": "Sketchfab-12.68.0",
    "version": "2.0"
  },
  "bufferViews": [
    {
      "buffer": 0,
      "byteLength": 166776,
      "name": "floatBufferViews",
      "target": 34963
    },
    {
      "buffer": 0,
      "byteLength": 82856,
      "byteOffset": 166776,
      "byteStride": 8,
      "name": "floatBufferViews",
      "target": 34962
    },
    {
      "buffer": 0,
      "byteLength": 248568,
      "byteOffset": 249632,
      "byteStride": 12,
      "name": "floatBufferViews",
      "target": 34962
    },
    {
      "buffer": 0,
      "byteLength": 165712,
      "byteOffset": 498200,
      "byteStride": 16,
      "name": "floatBufferViews",
      "target": 34962
    }
  ],
  "buffers": [
    {
      "byteLength": 663912,
      "uri": "scene.bin"
    }
  ],
  "images": [
    {
      "uri": "textures/Bot2_DefaultMaterial_baseColor.png"
    },
    {
      "uri": "textures/Bot2_DefaultMaterial_metallicRoughness.png"
    },
    {
      "uri": "textures/Bot2_DefaultMaterial_emissive.png"
    },
    {
      "uri": "textures/Bot2_DefaultMaterial_normal.png"
    }
  ],
  "materials": [
    {
      "doubleSided": true,
      "emissiveFactor": [
        1.0,
        1.0,
        1.0
      ],
      "emissiveTexture": {
        "index": 2
      },
      "name": "Bot2_DefaultMaterial",
      "normalTexture": {
        "index": 3
      },
      "pbrMetallicRoughness": {
        "baseColorTexture": {
          "index": 0
        },
        "metallicRoughnessTexture": {
          "index": 1
        }
      }
    }
  ],
  "meshes": [
    {
      "name": "Bot2_Bot2_DefaultMaterial_0",
      "primitives": [
        {
          "attributes": {
            "NORMAL": 1,
            "POSITION": 0,
            "TANGENT": 2,
            "TEXCOORD_0": 3
          },
          "indices": 4,
          "material": 0,
          "mode": 4
        }
      ]
    }
  ],
  "nodes": [
    {
      "children": [
        1
      ],
      "matrix": [
        1.0,
        0.0,
        0.0,
        0.0,
        0.0,
        2.220446049250313e-16,
        -1.0,
        0.0,
        0.0,
        1.0,
        2.220446049250313e-16,
        0.0,
        0.0,
        0.0,
        0.0,
        1.0
      ],
      "name": "Sketchfab_model"
    },
    {
      "children": [
        2
      ],
      "matrix": [
        1.0,
        0.0,
        0.0,
        0.0,
        0.0,
        0.0,
        1.0,
        0.0,
        0.0,
        -1.0,
        0.0,
        0.0,
        0.0,
        0.0,
        0.0,
        1.0
      ],
      "name": "Bot Red.fbx"
    },
    {
      "children": [
        3
      ],
      "name": "RootNode"
    },
    {
      "children": [
        4
      ],
      "name": "Bot2"
    },
    {
      "mesh": 0,
      "name": "Bot2_Bot2_DefaultMaterial_0"
    }
  ],
  "samplers": [
    {
      "magFilter": 9729,
      "minFilter": 9987,
      "wrapS": 10497,
      "wrapT": 10497
    }
  ],
  "scene": 0,
  "scenes": [
    {
      "name": "Sketchfab_Scene",
      "nodes": [
        0
      ]
    }
  ],
  "textures": [
    {
      "sampler": 0,
      "source": 0
    },
    {
      "sampler": 0,
      "source": 1
    },
    {
      "sampler": 0,
      "source": 2
    },
    {
      "sampler": 0,
      "source": 3
    }
  ]
}
